<?xml version="1.0" encoding="utf-8"?>
<!-- Generator: Adobe Illustrator 25.0.0, SVG Export Plug-In . SVG Version: 6.00 Build 0)  -->
<svg version="1.1" id="Шар_1" xmlns="http://www.w3.org/2000/svg" xmlns:xlink="http://www.w3.org/1999/xlink" x="0px" y="0px"
	 viewBox="0 0 204.6 84" style="enable-background:new 0 0 204.6 84;" xml:space="preserve">
<style type="text/css">
	.st0{fill:#66A3FF;}
	.st1{font-family:'Montserrat-Bold';}
	.st2{font-size:49px;}
	.st3{fill:none;}
	.st4{font-family:'Montserrat-SemiBold';}
	.st5{font-size:14px;}
</style>
<path class="st0" d="M61,58.1H34c-1.1-9.1-5.2-15.8-13-21V24.3c0-9.5,7.7-17.2,17.2-17.2c0,0,0,0,0,0H61V58.1z"/>
<rect x="33.5" y="64.1" class="st0" width="27.5" height="15"/>
<path class="st0" d="M28,57.3v21.8H16v-15H8.5C5,63.6,2.9,62,1.8,60c-1.1-2.2-1.7-4.6-1.8-7.1c0-6.5,5.3-11.8,11.8-11.8l0,0
	C20.8,41.1,28,48.4,28,57.3L28,57.3z"/>
<text transform="matrix(1 0 0 1 68.39 41.65)" class="st1 st2">NI</text>
<text transform="matrix(1 0 0 1 124.05 41.65)" class="st1 st2">K</text>
<text transform="matrix(1 0 0 1 159.09 41.65)" class="st1 st2">O</text>
<rect x="71" y="49.4" class="st3" width="127.8" height="29.6"/>
<text transform="matrix(1 0 0 1 71.0114 59.7397)"><tspan x="0" y="0" class="st4 st5">Магазин м’яких</tspan><tspan x="0" y="16.8" class="st4 st5">меблів</tspan></text>
</svg>
